# xmcd
#
# Track frame offsets: 
#        150
#        13078
#        25315
#        38582
#        53206
#        63477
#        75556
#        85976
#        96610
#        107370
#        121737
#        133224
#        144238
#        157192
#        166991
#        180978
#        192031
#        204039
#        213385
#        224317
#        235874
#        248904
#        260989
#        272182
#        284165
#
# Disc length: 3946 seconds
#
# Revision: 2
# Processed by: cddbd v1.5.2PL0 Copyright (c) Steve Scherf et al.
# Submitted via: ExactAudioCopyFreeDBPlugin 1.0
#
DISCID=6d0f6819
DTITLE=Various Artist - Rhythm 'n' Blues:  Early Doo-Wop
DYEAR=2005
DGENRE=Rhythm and Blues
TTITLE0=The "5" Royales - I Like it Like That
TTITLE1=The Strangers - Blue Flowers
TTITLE2=The Drifters - Money Honey
TTITLE3=The Flamingos - Golden Teardrops
TTITLE4=The Feathers - Shake' Em Up
TTITLE5=The Empires - Somebody Changed the Lock
TTITLE6=The Four Tunes - Marie
TTITLE7=The Treniers - Go, Go, Go
TTITLE8=The Sparrows - Tell Me Baby
TTITLE9=The Orchids - You're Everything to Me
TTITLE10=The Ravens - Honey, I Don't Want You
TTITLE11=The Jumping Jacks - Pa-Pa-Ya Baby
TTITLE12=The Medallions - The Letter
TTITLE13=Eddie Jones and The Toppers - Certainly All
TTITLE14=The Vocaleers - Is it a Dream
TTITLE15=The Swans - Ain't Like That No More
TTITLE16=The Lamplighters - Goody Good Thing
TTITLE17=The Crickets - Never Give Up Hope
TTITLE18=The Chords - Sh-Boom
TTITLE19=The Larks - Os-Ca-Lu-Ski-O
TTITLE20=The Moonglows - Baby Please
TTITLE21=The "5" Royales - Crazy, Crazy, Crazy
TTITLE22=The Rainbows - Mary Lee
TTITLE23=The Swallows - Good Time Girls
TTITLE24=The Hamptones - Turkey Hop
EXTD=(c) 2005
EXTT0=
EXTT1=
EXTT2=
EXTT3=
EXTT4=
EXTT5=
EXTT6=
EXTT7=
EXTT8=
EXTT9=
EXTT10=
EXTT11=
EXTT12=
EXTT13=
EXTT14=
EXTT15=
EXTT16=
EXTT17=
EXTT18=
EXTT19=
EXTT20=
EXTT21=
EXTT22=
EXTT23=
EXTT24=
PLAYORDER=
